<?xml version="1.0" encoding="UTF-8"?>
<svg version="1.1" xmlns="http://www.w3.org/2000/svg" width="700" height="700">
<path d="M0 0 C0.97496429 0.00304138 1.94992859 0.00608276 2.95443726 0.00921631 C18.88183689 0.08233069 34.20010349 1.05892803 49.8125 4.4375 C50.82957031 4.65180664 51.84664063 4.86611328 52.89453125 5.08691406 C104.29698491 16.19178377 145.40895537 43.54653007 182.8125 79.4375 C183.48635742 80.08267578 184.16021484 80.72785156 184.85449219 81.39257812 C193.44941948 89.66797636 201.42709927 98.09001189 208.51806641 107.69433594 C209.83837785 109.47234871 211.1877701 111.22503671 212.54296875 112.9765625 C223.48678546 127.28651966 232.2358911 143.11805199 239.8125 159.4375 C240.13814941 160.13713867 240.46379883 160.83677734 240.79931641 161.55761719 C255.48729377 193.59760291 262.53804125 228.33574083 263.8125 263.4375 C263.85503906 264.53835938 263.89757812 265.63921875 263.94140625 266.7734375 C265.17741941 333.51814836 239.91534556 398.82209964 195.06640625 447.9609375 C193.5382804 449.64002205 192.02564142 451.33330823 190.52734375 453.0390625 C186.61240219 457.48450214 182.67657248 461.66777274 178.140625 465.48046875 C176.33239598 467.00047334 174.56034411 468.54265743 172.796875 470.11328125 C157.47241147 483.67152023 140.62513372 494.43380849 122.8125 504.4375 C121.87599609 504.96408203 120.93949219 505.49066406 119.97460938 506.03320312 C83.18431607 526.49479285 43.16003053 536.65618365 1.125 536.6875 C0.30747253 536.68817474 -0.51005493 536.68884949 -1.35235596 536.68954468 C-15.1562067 536.67152662 -28.57720463 535.88886245 -42.1875 533.4375 C-43.11030762 533.27652832 -44.03311523 533.11555664 -44.98388672 532.94970703 C-90.53638534 524.75261955 -135.17526627 502.63205037 -170.1875 472.4375 C-170.92097656 471.81488281 -171.65445313 471.19226563 -172.41015625 470.55078125 C-185.6961321 458.95118998 -198.53260236 446.40286086 -208.94140625 432.13232422 C-210.23691202 430.37029423 -211.56774064 428.63969615 -212.90625 426.91015625 C-223.85910164 412.6008166 -232.60892016 396.76119326 -240.1875 380.4375 C-240.51314941 379.73786133 -240.83879883 379.03822266 -241.17431641 378.31738281 C-256.3271736 345.26331988 -263.58225118 309.58460582 -263.50317383 273.33789062 C-263.50002556 270.33686524 -263.52353409 267.33684128 -263.54882812 264.3359375 C-263.74082329 205.52863093 -241.97364869 150.4651572 -206.1875 104.4375 C-205.55666504 103.62442383 -205.55666504 103.62442383 -204.91308594 102.79492188 C-192.90833517 87.52324056 -178.68438573 73.21145619 -163.09375 61.62890625 C-160.55552739 59.71500453 -158.25447908 57.73244002 -155.9375 55.5625 C-128.63568535 30.97079195 -92.52640232 14.39364066 -57 6.0625 C-56.0416626 5.8361084 -55.0833252 5.6097168 -54.09594727 5.37646484 C-36.17654509 1.43060922 -18.31542324 -0.12248221 0 0 Z M-47.1875 47.4375 C-48.74355957 47.78784302 -48.74355957 47.78784302 -50.33105469 48.14526367 C-53.36048534 49.20052228 -53.36048534 49.20052228 -54.77978516 51.95483398 C-55.37218994 53.55307007 -55.37218994 53.55307007 -55.9765625 55.18359375 C-56.44449219 56.41787109 -56.91242188 57.65214844 -57.39453125 58.92382812 C-57.86745285 60.24079016 -58.34011213 61.55784643 -58.8125 62.875 C-59.25722656 64.05126953 -59.70195312 65.22753906 -60.16015625 66.43945312 C-61.18425626 69.15655364 -62.15099084 71.8883895 -63.10018921 74.63247681 C-64.41973702 78.39120746 -65.84381492 82.09155418 -67.34057283 85.78318363 C-76.29112983 108.03465756 -78.89249838 127.64066704 -78.40422726 151.49687171 C-78.32733434 155.91537226 -78.32201973 160.33406163 -78.30792236 164.75312805 C-78.2711579 173.05795201 -78.17344419 181.36079762 -78.05172849 189.66476423 C-77.9158945 199.14516077 -77.85120106 208.62567033 -77.79138327 218.1068033 C-77.66716711 237.55147544 -77.45718547 256.9943268 -77.1875 276.4375 C-72.10089027 278.44711119 -67.01410919 280.45628792 -61.92718506 282.46510315 C-60.20537958 283.14510544 -58.48361683 283.82521597 -56.76190186 284.50544739 C-31.99886912 296.7299105 -31.99886912 296.7299105 -6.1875 303.4375 C-6.8475 315.9775 -7.5075 328.5175 -8.1875 341.4375 C-14.47837352 338.89685552 -20.76911844 336.35589669 -27.05957031 333.81420898 C-29.18873255 332.95401082 -31.31796171 332.09397827 -33.44726562 331.23413086 C-36.55096844 329.98076883 -39.65441 328.72676165 -42.7578125 327.47265625 C-43.67233185 327.10350601 -44.5868512 326.73435577 -45.52908325 326.35401917 C-56.0959576 322.0823944 -66.63813598 317.75314892 -77.1875 313.4375 C-77.1875 369.5375 -77.1875 425.6375 -77.1875 483.4375 C-43.47840356 495.69535325 -9.18849972 499.38789817 26.44140625 495.72070312 C29.67370041 495.44916045 32.85154427 495.38203336 36.09375 495.359375 C41.79714739 495.1360364 46.98129186 494.69930014 51.8125 491.4375 C57.02815628 485.00662884 59.08710269 476.70457249 61.42871094 468.89990234 C62.96458447 463.83785849 64.74781932 458.87085546 66.5390625 453.89453125 C69.07752633 446.81888982 71.59176183 439.73666523 74.0390625 432.62890625 C74.30514313 431.86020706 74.57122375 431.09150787 74.84536743 430.29951477 C76.86577487 424.41376177 77.93747044 419.89836444 77.93275452 413.65447998 C77.93360894 412.97319259 77.93446337 412.2919052 77.93534368 411.58997273 C77.9369901 409.30832742 77.93149084 407.02675572 77.92602539 404.74511719 C77.92574331 403.10908001 77.92590166 401.47304271 77.9264679 399.83700562 C77.92675506 395.39522431 77.92087131 390.95346995 77.91389394 386.51169491 C77.90764703 381.86987888 77.90705554 377.22806226 77.90586853 372.58624268 C77.90275917 363.79612684 77.89455108 355.00602342 77.88451904 346.21591306 C77.87334566 336.20875725 77.86784436 326.20160085 77.86282361 316.19444036 C77.85236816 295.60878664 77.83477633 275.0231441 77.8125 254.4375 C76.07135545 253.64106521 74.32966042 252.8458338 72.58773804 252.05110168 C71.6178916 251.6081265 70.64804516 251.16515131 69.64880943 250.70875263 C65.86167097 249.01133214 62.02821462 247.46102731 58.1640625 245.94921875 C57.00577942 245.49221085 57.00577942 245.49221085 55.82409668 245.02597046 C53.3630561 244.05600584 50.90036338 243.09032575 48.4375 242.125 C46.73937326 241.45707015 45.04129407 240.78901939 43.34326172 240.12084961 C31.53052183 235.4781701 19.69567324 230.89725207 7.8125 226.4375 C7.67440996 213.73321603 8.07113082 201.12020851 8.8125 188.4375 C12.35448538 189.89868353 15.89601289 191.3609719 19.43713379 192.82424927 C20.7291549 193.35812867 22.02122849 193.89188109 23.31335449 194.42550659 C30.994764 197.59868241 38.66779704 200.79038968 46.32421875 204.0234375 C47.01685318 204.31553604 47.70948761 204.60763458 48.42311096 204.90858459 C51.77281394 206.32134481 55.12109183 207.73730793 58.46704102 209.15893555 C59.70192255 209.68032533 60.93686429 210.20157252 62.171875 210.72265625 C63.23889648 211.17519775 64.30591797 211.62773926 65.40527344 212.09399414 C69.48166508 213.70135895 73.65551414 215.05183805 77.8125 216.4375 C77.8125 163.6375 77.8125 110.8375 77.8125 56.4375 C62.55990969 51.51888749 62.55990969 51.51888749 47.125 47.6875 C46.24779297 47.49285156 45.37058594 47.29820312 44.46679688 47.09765625 C29.82770474 43.97492937 15.41861548 43.03356234 0.5 43.0625 C-0.36558533 43.06171448 -1.23117065 43.06092896 -2.12298584 43.06011963 C-17.31275844 43.07653874 -32.33980177 43.94307943 -47.1875 47.4375 Z M-146.19193649 95.79248333 C-148.1875 97.4375 -148.1875 97.4375 -151.11632156 99.32077503 C-156.46390188 103.22954052 -160.20638095 106.52581397 -161.28032684 113.290411 C-161.82413619 119.45964634 -161.67331907 125.62447203 -161.54980469 131.80932617 C-161.54641657 134.18530098 -161.54832612 136.56128834 -161.55511475 138.93725586 C-161.55854892 145.36519546 -161.48815082 151.79043172 -161.40422726 158.21774459 C-161.33090907 164.26060802 -161.32473482 170.30369847 -161.31240478 176.34693209 C-161.28619926 188.30967632 -161.20650153 200.27143363 -161.09277344 212.23364258 C-160.98247243 223.84752495 -160.89760744 235.46113841 -160.84667969 247.07543945 C-160.84352701 247.79241543 -160.84037432 248.5093914 -160.83712611 249.24809393 C-160.82146463 252.84527644 -160.80630038 256.44246084 -160.79138327 260.03964651 C-160.66716392 289.83962222 -160.4550705 319.63844522 -160.1875 349.4375 C-160.87457031 349.2209375 -161.56164062 349.004375 -162.26953125 348.78125 C-163.17058594 348.5028125 -164.07164062 348.224375 -165 347.9375 C-165.89332031 347.6590625 -166.78664062 347.380625 -167.70703125 347.09375 C-170.24323395 346.30961649 -170.24323395 346.30961649 -173.1875 346.4375 C-173.1875 272.8475 -173.1875 199.2575 -173.1875 123.4375 C-198.09748988 148.34748988 -221.89808991 192.58785408 -222.65258789 228.1652832 C-222.67660046 229.00232064 -222.70061302 229.83935808 -222.72535324 230.70176029 C-222.79926844 233.463798 -222.85685292 236.22577204 -222.91015625 238.98828125 C-222.92978613 239.94735004 -222.94941601 240.90641884 -222.96964073 241.89455032 C-223.11162851 249.17938779 -223.19550038 256.46401597 -223.25 263.75 C-223.2582933 264.81507404 -223.26658661 265.88014809 -223.27513123 266.9774971 C-223.44376597 293.05500018 -223.55069232 318.34251718 -215.4375 343.375 C-215.13014923 344.33072906 -214.82279846 345.28645813 -214.50613403 346.27114868 C-207.68666984 366.6972396 -197.09261197 386.23378548 -184.1875 403.4375 C-183.51702637 404.33903809 -183.51702637 404.33903809 -182.83300781 405.25878906 C-176.1627668 414.16685031 -168.88110152 422.40522197 -161.1875 430.4375 C-160.47851562 431.18773437 -159.76953125 431.93796875 -159.0390625 432.7109375 C-151.30014742 440.70255185 -142.59195863 447.5161742 -133.1875 453.4375 C-118.86303809 428.38051074 -108.5962287 401.02004881 -97.765625 374.3359375 C-97.41831329 373.48097183 -97.07100159 372.62600616 -96.71316528 371.74513245 C-96.23494827 370.56297401 -96.23494827 370.56297401 -95.74707031 369.35693359 C-95.32956512 368.32564835 -95.32956512 368.32564835 -94.90362549 367.27352905 C-93.54506541 363.79040241 -93.06289616 361.11608507 -93.06445217 357.3987627 C-93.06246112 356.35125428 -93.06047007 355.30374586 -93.05841869 354.22449476 C-93.06278795 352.49251223 -93.06278795 352.49251223 -93.06724548 350.72554016 C-93.06639106 349.50199473 -93.06553663 348.2784493 -93.06465632 347.01782674 C-93.063291 343.61551287 -93.06642767 340.21325617 -93.07143438 336.81094921 C-93.0757439 333.14430101 -93.0742921 329.47765465 -93.0735321 325.81100464 C-93.07300719 319.45624178 -93.07615062 313.10148918 -93.08176994 306.7467289 C-93.08988931 297.55875843 -93.09250061 288.37079293 -93.09375793 279.18281927 C-93.09594776 264.27674324 -93.10260599 249.37067267 -93.11206055 234.46459961 C-93.12123644 219.98282905 -93.12831641 205.50105998 -93.13256836 191.01928711 C-93.13283108 190.1269636 -93.13309381 189.23464009 -93.13336449 188.31527648 C-93.13466951 183.83885109 -93.13593322 179.36242569 -93.13717639 174.88600028 C-93.14754686 137.73649632 -93.16516331 100.58699859 -93.1875 63.4375 C-109.19776621 63.4375 -134.41654225 85.42795167 -146.19193649 95.79248333 Z M93.8125 63.4375 C93.8125 199.7275 93.8125 336.0175 93.8125 476.4375 C117.58714857 465.17582436 137.53853518 452.00170238 156.8125 434.4375 C157.49475143 433.96063751 158.17700287 433.48377502 158.87992859 432.99246216 C161.90737966 428.99001088 161.33785648 425.04725896 161.26660156 420.16113281 C161.26718567 419.11691666 161.26776978 418.0727005 161.26837158 416.99684143 C161.26558428 413.54443146 161.23446052 410.0928842 161.203125 406.640625 C161.19566494 404.24738029 161.1899709 401.85412947 161.18597412 399.46087646 C161.17069944 393.16098169 161.13140123 386.86145562 161.0871582 380.56170654 C161.0462454 374.13363635 161.0279716 367.7055066 161.0078125 361.27734375 C160.96490924 348.66390048 160.89663527 336.0507309 160.8125 323.4375 C167.2475 321.9525 167.2475 321.9525 173.8125 320.4375 C173.8125 351.7875 173.8125 383.1375 173.8125 415.4375 C185.6143799 403.6356201 194.26286583 389.23680379 201.8125 374.4375 C202.20421387 373.67324707 202.59592773 372.90899414 202.99951172 372.12158203 C209.01735053 360.2472073 213.82190259 348.13235347 217.8125 335.4375 C218.0707959 334.63280273 218.3290918 333.82810547 218.59521484 332.99902344 C224.44460326 314.5696221 224.44460326 314.5696221 221.74316406 295.96630859 C219.20122695 291.15231675 216.2515129 286.656595 213.04931641 282.25830078 C209.72848425 277.36947998 209.72848425 277.36947998 210.03320312 273.98925781 C210.8555833 271.29642649 211.91017648 269.06727509 213.28125 266.609375 C213.76980469 265.72765625 214.25835938 264.8459375 214.76171875 263.9375 C215.27347656 263.03 215.78523438 262.1225 216.3125 261.1875 C216.82425781 260.26453125 217.33601563 259.3415625 217.86328125 258.390625 C221.64560839 251.60439161 221.64560839 251.60439161 222.8125 250.4375 C224.16019426 234.4323512 222.95500281 219.58765264 217.8125 204.4375 C217.32075437 202.86135007 216.83121166 201.28451135 216.34375 199.70703125 C203.18163137 158.49469944 176.91122564 120.13963986 142.8125 93.4375 C141.81605469 92.63570312 140.81960938 91.83390625 139.79296875 91.0078125 C118.3351554 73.0744738 118.3351554 73.0744738 93.8125 63.4375 Z " fill="#000000" transform="translate(337.1875,86.5625)"/>
<path d="M0 0 C5.07002337 0.61829553 8.02322476 1.86709633 13 4 C13 33.7 13 63.4 13 94 C8.67322878 95.08169281 5.43291584 95.1453415 1 95 C-0.87788672 93.12211328 -0.12008587 90.40834091 -0.12442017 87.91021729 C-0.12082489 87.03484314 -0.11722961 86.15946899 -0.11352539 85.25756836 C-0.11367142 84.3405867 -0.11381744 83.42360504 -0.1139679 82.47883606 C-0.1132684 79.43248164 -0.10547428 76.38618755 -0.09765625 73.33984375 C-0.0957922 71.23377007 -0.09436824 69.12769597 -0.09336853 67.0216217 C-0.08954231 61.46657117 -0.07971114 55.91154659 -0.06866455 50.35650635 C-0.05845267 44.6927526 -0.05387139 39.02899467 -0.04882812 33.36523438 C-0.03808896 22.24347815 -0.0210113 11.12174123 0 0 Z " fill="#000000" transform="translate(498,262)"/>
</svg>
